<svg width="362" height="333" viewBox="0 0 362 333" fill="none" xmlns="http://www.w3.org/2000/svg">
    <path d="M46.3147 88.147H33.5382C32.6562 88.147 31.9412 88.8048 31.9412 89.6162V145.443C31.9412 146.254 32.6562 146.912 33.5382 146.912H46.3147C47.1967 146.912 47.9118 146.254 47.9118 145.443V89.6162C47.9118 88.8048 47.1967 88.147 46.3147 88.147Z" fill="#4A4A6A"/>
    <path d="M36.2 102.838H27.6824C27.0944 102.838 26.6177 103.277 26.6177 103.818V145.932C26.6177 146.473 27.0944 146.912 27.6824 146.912H36.2C36.788 146.912 37.2647 146.473 37.2647 145.932V103.818C37.2647 103.277 36.788 102.838 36.2 102.838Z" fill="#3A3A5A"/>
    <path d="M59.6235 78.353H50.0411C49.4531 78.353 48.9764 78.7915 48.9764 79.3324V145.932C48.9764 146.473 49.4531 146.912 50.0411 146.912H59.6235C60.2115 146.912 60.6882 146.473 60.6882 145.932V79.3324C60.6882 78.7915 60.2115 78.353 59.6235 78.353Z" fill="#4A4A6A"/>
    <path d="M75.5941 95.4927H62.8176C62.2296 95.4927 61.7529 95.9312 61.7529 96.4721V145.932C61.7529 146.473 62.2296 146.912 62.8176 146.912H75.5941C76.1821 146.912 76.6588 146.473 76.6588 145.932V96.4721C76.6588 95.9312 76.1821 95.4927 75.5941 95.4927Z" fill="#4A4A6A"/>
    <path d="M37.2647 95.4927H35.1353C34.8413 95.4927 34.603 95.7119 34.603 95.9824V97.9412C34.603 98.2117 34.8413 98.4309 35.1353 98.4309H37.2647C37.5587 98.4309 37.7971 98.2117 37.7971 97.9412V95.9824C37.7971 95.7119 37.5587 95.4927 37.2647 95.4927Z" fill="#A0A0BC"/>
    <path d="M42.5882 95.4927H40.4588C40.1648 95.4927 39.9265 95.7119 39.9265 95.9824V97.9412C39.9265 98.2117 40.1648 98.4309 40.4588 98.4309H42.5882C42.8822 98.4309 43.1206 98.2117 43.1206 97.9412V95.9824C43.1206 95.7119 42.8822 95.4927 42.5882 95.4927Z" fill="#A0A0BC"/>
    <path d="M37.2647 102.838H35.1353C34.8413 102.838 34.603 103.058 34.603 103.328V105.287C34.603 105.557 34.8413 105.776 35.1353 105.776H37.2647C37.5587 105.776 37.7971 105.557 37.7971 105.287V103.328C37.7971 103.058 37.5587 102.838 37.2647 102.838Z" fill="#A0A0BC"/>
    <path d="M42.5882 102.838H40.4588C40.1648 102.838 39.9265 103.058 39.9265 103.328V105.287C39.9265 105.557 40.1648 105.776 40.4588 105.776H42.5882C42.8822 105.776 43.1206 105.557 43.1206 105.287V103.328C43.1206 103.058 42.8822 102.838 42.5882 102.838Z" fill="#A0A0BC"/>
    <path d="M53.2353 85.6985H51.6382C51.3442 85.6985 51.1059 85.9178 51.1059 86.1883V87.6574C51.1059 87.9278 51.3442 88.1471 51.6382 88.1471H53.2353C53.5293 88.1471 53.7677 87.9278 53.7677 87.6574V86.1883C53.7677 85.9178 53.5293 85.6985 53.2353 85.6985Z" fill="#A0A0BC"/>
    <path d="M57.4941 85.6985H55.897C55.603 85.6985 55.3647 85.9178 55.3647 86.1883V87.6574C55.3647 87.9278 55.603 88.1471 55.897 88.1471H57.4941C57.7881 88.1471 58.0264 87.9278 58.0264 87.6574V86.1883C58.0264 85.9178 57.7881 85.6985 57.4941 85.6985Z" fill="#A0A0BC"/>
    <path d="M53.2353 92.0647H51.6382C51.3442 92.0647 51.1059 92.2839 51.1059 92.5544V94.0235C51.1059 94.294 51.3442 94.5132 51.6382 94.5132H53.2353C53.5293 94.5132 53.7677 94.294 53.7677 94.0235V92.5544C53.7677 92.2839 53.5293 92.0647 53.2353 92.0647Z" fill="#A0A0BC"/>
    <path d="M57.4941 92.0647H55.897C55.603 92.0647 55.3647 92.2839 55.3647 92.5544V94.0235C55.3647 94.294 55.603 94.5132 55.897 94.5132H57.4941C57.7881 94.5132 58.0264 94.294 58.0264 94.0235V92.5544C58.0264 92.2839 57.7881 92.0647 57.4941 92.0647Z" fill="#A0A0BC"/>
    <path d="M281.615 85.6985H267.774C266.892 85.6985 266.177 86.3563 266.177 87.1677V145.443C266.177 146.254 266.892 146.912 267.774 146.912H281.615C282.497 146.912 283.212 146.254 283.212 145.443V87.1677C283.212 86.3563 282.497 85.6985 281.615 85.6985Z" fill="#4A4A6A"/>
    <path d="M295.988 97.9412H285.341C284.753 97.9412 284.276 98.3797 284.276 98.9206V145.932C284.276 146.473 284.753 146.912 285.341 146.912H295.988C296.576 146.912 297.053 146.473 297.053 145.932V98.9206C297.053 98.3797 296.576 97.9412 295.988 97.9412Z" fill="#3A3A5A"/>
    <path d="M311.959 90.5956H299.182C298.594 90.5956 298.118 91.0341 298.118 91.575V145.932C298.118 146.473 298.594 146.912 299.182 146.912H311.959C312.547 146.912 313.024 146.473 313.024 145.932V91.575C313.024 91.0341 312.547 90.5956 311.959 90.5956Z" fill="#4A4A6A"/>
    <path d="M324.735 102.838H315.153C314.565 102.838 314.088 103.277 314.088 103.818V145.932C314.088 146.473 314.565 146.912 315.153 146.912H324.735C325.323 146.912 325.8 146.473 325.8 145.932V103.818C325.8 103.277 325.323 102.838 324.735 102.838Z" fill="#4A4A6A"/>
    <path d="M271.5 93.0441H269.371C269.077 93.0441 268.838 93.2634 268.838 93.5338V95.4927C268.838 95.7631 269.077 95.9824 269.371 95.9824H271.5C271.794 95.9824 272.032 95.7631 272.032 95.4927V93.5338C272.032 93.2634 271.794 93.0441 271.5 93.0441Z" fill="#A0A0BC"/>
    <path d="M277.356 93.0441H275.226C274.932 93.0441 274.694 93.2634 274.694 93.5338V95.4927C274.694 95.7631 274.932 95.9824 275.226 95.9824H277.356C277.65 95.9824 277.888 95.7631 277.888 95.4927V93.5338C277.888 93.2634 277.65 93.0441 277.356 93.0441Z" fill="#A0A0BC"/>
    <path d="M271.5 100.39H269.371C269.077 100.39 268.838 100.609 268.838 100.879V102.838C268.838 103.109 269.077 103.328 269.371 103.328H271.5C271.794 103.328 272.032 103.109 272.032 102.838V100.879C272.032 100.609 271.794 100.39 271.5 100.39Z" fill="#A0A0BC"/>
    <path d="M277.356 100.39H275.226C274.932 100.39 274.694 100.609 274.694 100.879V102.838C274.694 103.109 274.932 103.328 275.226 103.328H277.356C277.65 103.328 277.888 103.109 277.888 102.838V100.879C277.888 100.609 277.65 100.39 277.356 100.39Z" fill="#A0A0BC"/>
    <path d="M302.909 96.9618H301.312C301.018 96.9618 300.779 97.181 300.779 97.4515V98.9206C300.779 99.1911 301.018 99.4103 301.312 99.4103H302.909C303.203 99.4103 303.441 99.1911 303.441 98.9206V97.4515C303.441 97.181 303.203 96.9618 302.909 96.9618Z" fill="#A0A0BC"/>
    <path d="M307.7 96.9618H306.103C305.809 96.9618 305.571 97.181 305.571 97.4515V98.9206C305.571 99.1911 305.809 99.4103 306.103 99.4103H307.7C307.994 99.4103 308.232 99.1911 308.232 98.9206V97.4515C308.232 97.181 307.994 96.9618 307.7 96.9618Z" fill="#A0A0BC"/>
    <path d="M302.909 103.818H301.312C301.018 103.818 300.779 104.037 300.779 104.307V105.776C300.779 106.047 301.018 106.266 301.312 106.266H302.909C303.203 106.266 303.441 106.047 303.441 105.776V104.307C303.441 104.037 303.203 103.818 302.909 103.818Z" fill="#A0A0BC"/>
    <path d="M307.7 103.818H306.103C305.809 103.818 305.571 104.037 305.571 104.307V105.776C305.571 106.047 305.809 106.266 306.103 106.266H307.7C307.994 106.266 308.232 106.047 308.232 105.776V104.307C308.232 104.037 307.994 103.818 307.7 103.818Z" fill="#A0A0BC"/>
    <path d="M298.248 119.86L59.5177 148.943C56.048 149.365 53.6636 152.35 54.192 155.609L76.9936 296.24C77.522 299.498 80.763 301.798 84.2327 301.375L322.963 272.293C326.433 271.87 328.817 268.885 328.289 265.627L305.487 124.996C304.959 121.737 301.718 119.438 298.248 119.86Z" fill="#E8E8F0"/>
    <path d="M59.1624 190.604L312.205 157.89" stroke="#C0C0D8" stroke-width="1.5"/>
    <path d="M65.0895 229.399L318.132 196.685" stroke="#C0C0D8" stroke-width="1.5"/>
    <path d="M71.0167 268.194L324.059 235.481" stroke="#C0C0D8" stroke-width="1.5"/>
    <path d="M105.952 144.993L128.92 295.325" stroke="#C0C0D8" stroke-width="1.5"/>
    <path d="M169.213 136.815L192.181 287.146" stroke="#C0C0D8" stroke-width="1.5"/>
    <path d="M237.745 127.955L260.713 278.286" stroke="#C0C0D8" stroke-width="1.5"/>
    <path d="M62.9076 213.958C103.967 201.9 143.119 200.453 180.365 209.617C217.611 218.782 262.983 211.37 316.481 187.381" stroke="#C8C8D8" stroke-width="14" stroke-linecap="round"/>
    <path d="M62.9076 213.958C103.967 201.9 143.119 200.453 180.365 209.617C217.611 218.782 262.983 211.37 316.481 187.381" stroke="#E8E8F2" stroke-width="10" stroke-linecap="round"/>
    <path d="M137.583 140.497C149.609 172.073 161.636 203.649 173.663 235.225C184.13 257.076 193.817 274.064 202.724 286.19" stroke="#C8C8D8" stroke-width="12" stroke-linecap="round"/>
    <path d="M137.583 140.497C149.609 172.073 161.636 203.649 173.663 235.225C184.13 257.076 193.817 274.064 202.724 286.19" stroke="#E8E8F2" stroke-width="8" stroke-linecap="round"/>
    <path d="M99.7906 155.629L67.3532 159.578C66.1974 159.719 65.4032 160.713 65.5792 161.798L68.9254 182.427C69.1015 183.512 70.1811 184.277 71.3369 184.137L103.774 180.187C104.93 180.046 105.724 179.053 105.548 177.967L102.202 157.338C102.026 156.253 100.946 155.488 99.7906 155.629Z" fill="#DCDCEA"/>
    <path d="M157.77 148.132L114.802 153.372C113.644 153.513 112.849 154.509 113.025 155.598L116.377 176.287C116.553 177.376 117.634 178.143 118.792 178.002L161.76 172.763C162.918 172.622 163.713 171.625 163.537 170.537L160.185 149.847C160.009 148.759 158.928 147.991 157.77 148.132Z" fill="#DCDCEA"/>
    <path d="M226.288 139.271L193.873 143.217C192.718 143.358 191.924 144.351 192.1 145.435L195.842 168.497C196.018 169.581 197.097 170.345 198.252 170.205L230.667 166.259C231.822 166.118 232.616 165.126 232.44 164.042L228.698 140.98C228.522 139.896 227.443 139.131 226.288 139.271Z" fill="#DCDCEA"/>
    <path d="M294.86 130.413L251.868 135.659C250.71 135.801 249.914 136.799 250.09 137.888L253.044 156.14C253.221 157.23 254.303 157.998 255.461 157.857L298.453 152.611C299.611 152.469 300.407 151.471 300.231 150.382L297.277 132.13C297.1 131.04 296.018 130.271 294.86 130.413Z" fill="#DCDCEA"/>
    <path d="M117.427 237.386L79.9383 241.95C78.7881 242.09 77.9976 243.079 78.1728 244.158L85.4675 289.123C85.6427 290.203 86.7171 290.965 87.8674 290.825L125.356 286.261C126.506 286.121 127.296 285.132 127.121 284.052L119.826 239.087C119.651 238.007 118.577 237.246 117.427 237.386Z" fill="#DCDCEA"/>
    <path d="M255.274 224.515L217.746 229.083C216.595 229.223 215.803 230.213 215.979 231.293L222.488 271.402C222.663 272.482 223.738 273.245 224.89 273.105L262.418 268.537C263.57 268.397 264.361 267.407 264.186 266.327L257.677 226.218C257.502 225.137 256.426 224.375 255.274 224.515Z" fill="#DCDCEA"/>
    <path d="M306.427 208.001L268.977 212.562C267.828 212.702 267.039 213.69 267.214 214.769L275.293 264.589C275.468 265.668 276.541 266.43 277.69 266.29L315.14 261.728C316.289 261.588 317.078 260.6 316.903 259.521L308.824 209.701C308.649 208.622 307.576 207.861 306.427 208.001Z" fill="#DCDCEA"/>
    <path opacity="0.3" d="M181 283.05C202.169 283.05 219.329 279.104 219.329 274.235C219.329 269.367 202.169 265.421 181 265.421C159.831 265.421 142.671 269.367 142.671 274.235C142.671 279.104 159.831 283.05 181 283.05Z" fill="#B0A0C8"/>
    <path d="M78.7882 157.685C70.2706 157.685 63.8823 163.562 63.8823 171.397C63.8823 179.232 78.7882 192.944 78.7882 192.944C78.7882 192.944 93.6941 179.232 93.6941 171.397C93.6941 163.562 87.3059 157.685 78.7882 157.685Z" fill="#7B52C8"/>
    <path d="M78.7882 177.274C82.3163 177.274 85.1764 174.643 85.1764 171.397C85.1764 168.152 82.3163 165.521 78.7882 165.521C75.2601 165.521 72.4 168.152 72.4 171.397C72.4 174.643 75.2601 177.274 78.7882 177.274Z" fill="#5A3099"/>
    <path d="M282.147 155.726C275.226 155.726 270.435 160.134 270.435 166.5C270.435 172.866 282.147 184.129 282.147 184.129C282.147 184.129 293.859 172.866 293.859 166.5C293.859 160.134 289.068 155.726 282.147 155.726Z" fill="#7B52C8"/>
    <path d="M282.147 170.907C284.793 170.907 286.938 168.934 286.938 166.5C286.938 164.066 284.793 162.093 282.147 162.093C279.501 162.093 277.356 164.066 277.356 166.5C277.356 168.934 279.501 170.907 282.147 170.907Z" fill="#5A3099"/>
    <path d="M181 22.0367C135.218 22.0367 98.4853 55.8265 98.4853 97.9412C98.4853 128.303 138.412 170.418 181 200.779C223.588 170.418 263.515 128.303 263.515 97.9412C263.515 55.8265 226.782 22.0367 181 22.0367Z" fill="#6E2786"/>
    <path opacity="0.5" d="M181 26.9338C138.412 26.9338 104.341 58.7647 104.341 97.9411C104.341 124.875 141.074 164.541 181 193.923" stroke="#9B72E8" stroke-width="6" stroke-linecap="round"/>
    <path d="M181 150.829C212.753 150.829 238.494 127.151 238.494 97.9412C238.494 68.7318 212.753 45.0529 181 45.0529C149.247 45.0529 123.506 68.7318 123.506 97.9412C123.506 127.151 149.247 150.829 181 150.829Z" fill="white"/>
    <path d="M181 150.829C212.753 150.829 238.494 127.151 238.494 97.9412C238.494 68.7318 212.753 45.0529 181 45.0529C149.247 45.0529 123.506 68.7318 123.506 97.9412C123.506 127.151 149.247 150.829 181 150.829Z" stroke="#7B52C8" stroke-width="4"/>
    <path d="M183.662 112.632H178.338C177.456 112.632 176.741 113.29 176.741 114.101V135.649C176.741 136.46 177.456 137.118 178.338 137.118H183.662C184.544 137.118 185.259 136.46 185.259 135.649V114.101C185.259 113.29 184.544 112.632 183.662 112.632Z" fill="#7B52C8"/>
    <path d="M194.309 132.221H167.691C166.809 132.221 166.094 132.878 166.094 133.69V135.649C166.094 136.46 166.809 137.118 167.691 137.118H194.309C195.191 137.118 195.906 136.46 195.906 135.649V133.69C195.906 132.878 195.191 132.221 194.309 132.221Z" fill="#6A3FA0"/>
    <path d="M168.485 122.155L160.481 124.834C159.929 125.019 159.644 125.581 159.845 126.09L160.209 127.01C160.41 127.518 161.021 127.78 161.574 127.595L169.578 124.916C170.13 124.731 170.415 124.169 170.214 123.66L169.85 122.74C169.649 122.232 169.038 121.97 168.485 122.155Z" fill="#6A3FA0"/>
    <path d="M201.519 124.834L193.515 122.155C192.962 121.97 192.351 122.232 192.15 122.74L191.786 123.66C191.585 124.169 191.87 124.731 192.422 124.916L200.426 127.595C200.979 127.78 201.59 127.518 201.791 127.01L202.155 126.09C202.356 125.581 202.071 125.019 201.519 124.834Z" fill="#6A3FA0"/>
    <path d="M151.721 78.3529C171.24 62.0294 190.76 62.0294 210.279 78.3529" stroke="#F0218C" stroke-width="9" stroke-linecap="round"/>
    <path d="M161.835 89.1265C174.612 78.0265 187.388 78.0265 200.165 89.1265" stroke="#9B72E8" stroke-width="9" stroke-linecap="round"/>
    <path d="M171.95 99.9C177.983 94.0235 184.017 94.0235 190.05 99.9" stroke="#7B52C8" stroke-width="9" stroke-linecap="round"/>
    <path d="M181 110.184C183.058 110.184 184.727 108.649 184.727 106.756C184.727 104.863 183.058 103.328 181 103.328C178.942 103.328 177.274 104.863 177.274 106.756C177.274 108.649 178.942 110.184 181 110.184Z" fill="#F0218C"/>
    <path d="M138.412 48.9706C166.804 33.9529 195.196 33.9529 223.588 48.9706" stroke="#7B52C8" stroke-width="11" stroke-linecap="round"/>
    <path d="M150.124 62.6824C170.708 49.6235 191.292 49.6235 211.876 62.6824" stroke="#9B72E8" stroke-width="10" stroke-linecap="round"/>
    <path d="M162.368 75.9044C174.789 68.3956 187.211 68.3956 199.632 75.9044" stroke="#B090E8" stroke-width="9" stroke-linecap="round"/>
    <path d="M181 89.1265C183.94 89.1265 186.324 86.934 186.324 84.2294C186.324 81.5248 183.94 79.3323 181 79.3323C178.06 79.3323 175.676 81.5248 175.676 84.2294C175.676 86.934 178.06 89.1265 181 89.1265Z" fill="#7B52C8"/>
    </svg>
    